<svg xmlns="http://www.w3.org/2000/svg" viewBox="0 0 800 520">
<defs><linearGradient id="a" x1="0" x2="1"><stop stop-color="#fff0f7"/><stop offset="1" stop-color="#ffd4e8"/></linearGradient><linearGradient id="b" x1="0" x2="1"><stop stop-color="#ff388f"/><stop offset="1" stop-color="#a91067"/></linearGradient></defs>
<rect width="800" height="520" rx="48" fill="url(#a)"/><circle cx="650" cy="90" r="130" fill="#ff6eae" opacity=".16"/><circle cx="135" cy="430" r="160" fill="#d7418f" opacity=".12"/>
<g transform="translate(160 80)"><circle cx="170" cy="105" r="78" fill="#7f4a3a"/><path d="M88 111c0-84 60-120 88-120 67 0 103 50 94 126-38-40-107-48-182-6z" fill="#3d2137"/><rect x="76" y="190" width="205" height="210" rx="93" fill="url(#b)"/><path d="M131 240c34 34 66 34 96 0" fill="none" stroke="#fff" stroke-width="13" stroke-linecap="round"/><path d="M280 220c79 15 136 61 165 133" fill="none" stroke="#f299bf" stroke-width="35" stroke-linecap="round"/><circle cx="456" cy="365" r="48" fill="#7f4a3a"/><path d="M125 108c15 26 29 38 53 38 26 0 44-13 58-38" fill="none" stroke="#4a251d" stroke-width="5" stroke-linecap="round"/><circle cx="145" cy="100" r="5" fill="#1b1214"/><circle cx="210" cy="100" r="5" fill="#1b1214"/></g>
<g transform="translate(535 180)"><rect width="170" height="130" rx="28" fill="#fff" opacity=".94"/><path d="M42 77c22-24 42-20 53 1 10-21 31-25 53-1-6 35-53 61-53 61S48 112 42 77z" fill="#ff3d91"/><path d="M95 34v45M72 56h46" stroke="#a91067" stroke-width="10" stroke-linecap="round"/></g>
</svg>
