<svg xmlns="http://www.w3.org/2000/svg" viewBox="0 0 800 520"><defs><linearGradient id="g" x1="0" y1="0" x2="1" y2="1"><stop stop-color="#ffeaf4"/><stop offset="1" stop-color="#f3d8ff"/></linearGradient></defs><rect width="800" height="520" rx="48" fill="url(#g)"/><path d="M92 420c95-126 192-139 291-43 80-132 184-147 325 20v73H92z" fill="#fff" opacity=".82"/><g transform="translate(90 95)"><g transform="translate(0 80)"><circle cx="94" cy="72" r="50" fill="#7e4938"/><rect x="34" y="135" width="120" height="166" rx="58" fill="#ff4b9d"/></g><g transform="translate(180 12)"><circle cx="94" cy="72" r="50" fill="#4f2e29"/><rect x="34" y="135" width="120" height="190" rx="58" fill="#8d2a70"/></g><g transform="translate(360 65)"><circle cx="94" cy="72" r="50" fill="#9a5e45"/><rect x="34" y="135" width="120" height="170" rx="58" fill="#fc75b2"/></g><g transform="translate(520 95)"><circle cx="68" cy="62" r="42" fill="#6e4433"/><rect x="18" y="118" width="100" height="145" rx="49" fill="#b92778"/></g></g><path d="M337 119c21-24 48-13 63 10 16-24 43-34 64-10 37 44-64 109-64 109s-99-64-63-109z" fill="#fff" opacity=".95"/></svg>
